# xmcd CD database file
#
# Track frame offsets:
#	150
#	16326
#	35777
#	55266
#	74687
#	91951
#	108599
#	124274
#	142166
#	158843
#	170899
#	186945
#	192464
#	209414
#
# Disc length: 2953 seconds
#
# Revision: 0
# Processed by: cddbd v1.5.2PL0 Copyright (c) Steve Scherf et al.
# Submitted via: CDex 1.51
#
DISCID=df0b870e
DTITLE=Kelly Sweet - We Are One
DYEAR=2007
DGENRE=Jazz
TTITLE0=We Are One
TTITLE1=Ready For Love
TTITLE2=Giorno Dopo Giorno
TTITLE3=Now We Are Free
TTITLE4=Raincoat
TTITLE5=How 'bout You
TTITLE6=Dream On
TTITLE7=Crush
TTITLE8=I Will Be Waiting
TTITLE9=Nella Fantasia
TTITLE10=Love Song
TTITLE11=Caresse Sur l'Ocean
TTITLE12=Eternity
TTITLE13=Je t'aime
EXTD=YEAR: 2007
EXTT0=
EXTT1=
EXTT2=
EXTT3=
EXTT4=
EXTT5=
EXTT6=
EXTT7=
EXTT8=
EXTT9=
EXTT10=
EXTT11=
EXTT12=
EXTT13=
PLAYORDER=
